<svg width="627" height="190" viewBox="0 0 627 190" fill="none" xmlns="http://www.w3.org/2000/svg">
<g filter="url(#filter0_d_249_191)">
<rect x="20" y="10" width="294" height="45" rx="10" fill="#6DAEDB" shape-rendering="crispEdges"/>
<path d="M65.382 23.852V35.084C65.382 36.3147 65.7027 37.2593 66.344 37.918C66.9853 38.5593 67.8867 38.88 69.048 38.88C70.2267 38.88 71.1367 38.5593 71.778 37.918C72.4193 37.2593 72.74 36.3147 72.74 35.084V23.852H76.406V35.058C76.406 36.6007 76.068 37.9093 75.392 38.984C74.7333 40.0413 73.8407 40.8387 72.714 41.376C71.6047 41.9133 70.3653 42.182 68.996 42.182C67.644 42.182 66.4133 41.9133 65.304 41.376C64.212 40.8387 63.3453 40.0413 62.704 38.984C62.0627 37.9093 61.742 36.6007 61.742 35.058V23.852H65.382ZM87.9049 27.388C89.6209 27.388 91.0076 27.934 92.0649 29.026C93.1222 30.1007 93.6509 31.6087 93.6509 33.55V42H90.0109V34.044C90.0109 32.9 89.7249 32.0247 89.1529 31.418C88.5809 30.794 87.8009 30.482 86.8129 30.482C85.8076 30.482 85.0102 30.794 84.4209 31.418C83.8489 32.0247 83.5629 32.9 83.5629 34.044V42H79.9229V27.596H83.5629V29.39C84.0482 28.766 84.6636 28.2807 85.4089 27.934C86.1716 27.57 87.0036 27.388 87.9049 27.388ZM98.9584 25.88C98.317 25.88 97.7797 25.6807 97.3464 25.282C96.9304 24.866 96.7224 24.3547 96.7224 23.748C96.7224 23.1413 96.9304 22.6387 97.3464 22.24C97.7797 21.824 98.317 21.616 98.9584 21.616C99.5997 21.616 100.128 21.824 100.544 22.24C100.978 22.6387 101.194 23.1413 101.194 23.748C101.194 24.3547 100.978 24.866 100.544 25.282C100.128 25.6807 99.5997 25.88 98.9584 25.88ZM100.752 27.596V42H97.1124V27.596H100.752ZM108.587 30.586V37.554C108.587 38.0393 108.699 38.3947 108.925 38.62C109.167 38.828 109.566 38.932 110.121 38.932H111.811V42H109.523C106.455 42 104.921 40.5093 104.921 37.528V30.586H103.205V27.596H104.921V24.034L108.587 24.034V27.596H111.811V30.586H108.587ZM127.819 34.486C127.819 35.006 127.784 35.474 127.715 35.89H117.185C117.271 36.93 117.635 37.7447 118.277 38.334C118.918 38.9233 119.707 39.218 120.643 39.218C121.995 39.218 122.957 38.6373 123.529 37.476H127.455C127.039 38.8627 126.241 40.0067 125.063 40.908C123.884 41.792 122.437 42.234 120.721 42.234C119.334 42.234 118.086 41.9307 116.977 41.324C115.885 40.7 115.027 39.8247 114.403 38.698C113.796 37.5713 113.493 36.2713 113.493 34.798C113.493 33.3073 113.796 31.9987 114.403 30.872C115.009 29.7453 115.859 28.8787 116.951 28.272C118.043 27.6653 119.299 27.362 120.721 27.362C122.09 27.362 123.312 27.6567 124.387 28.246C125.479 28.8353 126.319 29.676 126.909 30.768C127.515 31.8427 127.819 33.082 127.819 34.486ZM124.049 33.446C124.031 32.51 123.693 31.7647 123.035 31.21C122.376 30.638 121.57 30.352 120.617 30.352C119.715 30.352 118.953 30.6293 118.329 31.184C117.722 31.7213 117.349 32.4753 117.211 33.446H124.049ZM129.54 34.746C129.54 33.29 129.826 31.9987 130.398 30.872C130.987 29.7453 131.784 28.8787 132.79 28.272C133.795 27.6653 134.913 27.362 136.144 27.362C137.08 27.362 137.972 27.57 138.822 27.986C139.671 28.3847 140.347 28.922 140.85 29.598V22.76H144.542V42H140.85V39.868C140.399 40.5787 139.766 41.1507 138.952 41.584C138.137 42.0173 137.192 42.234 136.118 42.234C134.904 42.234 133.795 41.922 132.79 41.298C131.784 40.674 130.987 39.7987 130.398 38.672C129.826 37.528 129.54 36.2193 129.54 34.746ZM140.876 34.798C140.876 33.914 140.702 33.16 140.356 32.536C140.009 31.8947 139.541 31.4093 138.952 31.08C138.362 30.7333 137.73 30.56 137.054 30.56C136.378 30.56 135.754 30.7247 135.182 31.054C134.61 31.3833 134.142 31.8687 133.778 32.51C133.431 33.134 133.258 33.8793 133.258 34.746C133.258 35.6127 133.431 36.3753 133.778 37.034C134.142 37.6753 134.61 38.1693 135.182 38.516C135.771 38.8627 136.395 39.036 137.054 39.036C137.73 39.036 138.362 38.8713 138.952 38.542C139.541 38.1953 140.009 37.71 140.356 37.086C140.702 36.4447 140.876 35.682 140.876 34.798ZM164.536 42L157.932 33.914V42L154.292 42V23.852H157.932V31.99L164.536 23.852H168.93L161.442 32.848L169.138 42H164.536ZM173.378 25.88C172.737 25.88 172.2 25.6807 171.766 25.282C171.35 24.866 171.142 24.3547 171.142 23.748C171.142 23.1413 171.35 22.6387 171.766 22.24C172.2 21.824 172.737 21.616 173.378 21.616C174.02 21.616 174.548 21.824 174.964 22.24C175.398 22.6387 175.614 23.1413 175.614 23.748C175.614 24.3547 175.398 24.866 174.964 25.282C174.548 25.6807 174.02 25.88 173.378 25.88ZM175.172 27.596V42H171.532V27.596H175.172ZM186.751 27.388C188.467 27.388 189.853 27.934 190.911 29.026C191.968 30.1007 192.497 31.6087 192.497 33.55V42H188.857V34.044C188.857 32.9 188.571 32.0247 187.999 31.418C187.427 30.794 186.647 30.482 185.659 30.482C184.653 30.482 183.856 30.794 183.267 31.418C182.695 32.0247 182.409 32.9 182.409 34.044V42H178.769V27.596H182.409V29.39C182.894 28.766 183.509 28.2807 184.255 27.934C185.017 27.57 185.849 27.388 186.751 27.388ZM201.6 27.362C202.675 27.362 203.619 27.5787 204.434 28.012C205.249 28.428 205.89 28.974 206.358 29.65V27.596H210.024V42.104C210.024 43.4387 209.755 44.626 209.218 45.666C208.681 46.7233 207.875 47.5553 206.8 48.162C205.725 48.786 204.425 49.098 202.9 49.098C200.855 49.098 199.173 48.6213 197.856 47.668C196.556 46.7147 195.819 45.4147 195.646 43.768H199.26C199.451 44.4267 199.858 44.9467 200.482 45.328C201.123 45.7267 201.895 45.926 202.796 45.926C203.853 45.926 204.711 45.6053 205.37 44.964C206.029 44.34 206.358 43.3867 206.358 42.104V39.868C205.89 40.544 205.24 41.1073 204.408 41.558C203.593 42.0087 202.657 42.234 201.6 42.234C200.387 42.234 199.277 41.922 198.272 41.298C197.267 40.674 196.469 39.7987 195.88 38.672C195.308 37.528 195.022 36.2193 195.022 34.746C195.022 33.29 195.308 31.9987 195.88 30.872C196.469 29.7453 197.258 28.8787 198.246 28.272C199.251 27.6653 200.369 27.362 201.6 27.362ZM206.358 34.798C206.358 33.914 206.185 33.16 205.838 32.536C205.491 31.8947 205.023 31.4093 204.434 31.08C203.845 30.7333 203.212 30.56 202.536 30.56C201.86 30.56 201.236 30.7247 200.664 31.054C200.092 31.3833 199.624 31.8687 199.26 32.51C198.913 33.134 198.74 33.8793 198.74 34.746C198.74 35.6127 198.913 36.3753 199.26 37.034C199.624 37.6753 200.092 38.1693 200.664 38.516C201.253 38.8627 201.877 39.036 202.536 39.036C203.212 39.036 203.845 38.8713 204.434 38.542C205.023 38.1953 205.491 37.71 205.838 37.086C206.185 36.4447 206.358 35.682 206.358 34.798ZM212.643 34.746C212.643 33.29 212.929 31.9987 213.501 30.872C214.09 29.7453 214.888 28.8787 215.893 28.272C216.898 27.6653 218.016 27.362 219.247 27.362C220.183 27.362 221.076 27.57 221.925 27.986C222.774 28.3847 223.45 28.922 223.953 29.598V22.76H227.645V42H223.953V39.868C223.502 40.5787 222.87 41.1507 222.055 41.584C221.24 42.0173 220.296 42.234 219.221 42.234C218.008 42.234 216.898 41.922 215.893 41.298C214.888 40.674 214.09 39.7987 213.501 38.672C212.929 37.528 212.643 36.2193 212.643 34.746ZM223.979 34.798C223.979 33.914 223.806 33.16 223.459 32.536C223.112 31.8947 222.644 31.4093 222.055 31.08C221.466 30.7333 220.833 30.56 220.157 30.56C219.481 30.56 218.857 30.7247 218.285 31.054C217.713 31.3833 217.245 31.8687 216.881 32.51C216.534 33.134 216.361 33.8793 216.361 34.746C216.361 35.6127 216.534 36.3753 216.881 37.034C217.245 37.6753 217.713 38.1693 218.285 38.516C218.874 38.8627 219.498 39.036 220.157 39.036C220.833 39.036 221.466 38.8713 222.055 38.542C222.644 38.1953 223.112 37.71 223.459 37.086C223.806 36.4447 223.979 35.682 223.979 34.798ZM237.596 42.234C236.21 42.234 234.962 41.9307 233.852 41.324C232.743 40.7 231.868 39.8247 231.226 38.698C230.602 37.5713 230.29 36.2713 230.29 34.798C230.29 33.3247 230.611 32.0247 231.252 30.898C231.911 29.7713 232.804 28.9047 233.93 28.298C235.057 27.674 236.314 27.362 237.7 27.362C239.087 27.362 240.344 27.674 241.47 28.298C242.597 28.9047 243.481 29.7713 244.122 30.898C244.781 32.0247 245.11 33.3247 245.11 34.798C245.11 36.2713 244.772 37.5713 244.096 38.698C243.438 39.8247 242.536 40.7 241.392 41.324C240.266 41.9307 239 42.234 237.596 42.234ZM237.596 39.062C238.255 39.062 238.87 38.906 239.442 38.594C240.032 38.2647 240.5 37.7793 240.846 37.138C241.193 36.4967 241.366 35.7167 241.366 34.798C241.366 33.4287 241.002 32.38 240.274 31.652C239.564 30.9067 238.688 30.534 237.648 30.534C236.608 30.534 235.733 30.9067 235.022 31.652C234.329 32.38 233.982 33.4287 233.982 34.798C233.982 36.1673 234.32 37.2247 234.996 37.97C235.69 38.698 236.556 39.062 237.596 39.062ZM265.668 27.388C267.436 27.388 268.858 27.934 269.932 29.026C271.024 30.1007 271.57 31.6087 271.57 33.55V42H267.93V34.044C267.93 32.9173 267.644 32.0593 267.072 31.47C266.5 30.8633 265.72 30.56 264.732 30.56C263.744 30.56 262.956 30.8633 262.366 31.47C261.794 32.0593 261.508 32.9173 261.508 34.044V42H257.868V34.044C257.868 32.9173 257.582 32.0593 257.01 31.47C256.438 30.8633 255.658 30.56 254.67 30.56C253.665 30.56 252.868 30.8633 252.278 31.47C251.706 32.0593 251.42 32.9173 251.42 34.044V42H247.78V27.596H251.42V29.338C251.888 28.7313 252.486 28.2547 253.214 27.908C253.96 27.5613 254.774 27.388 255.658 27.388C256.785 27.388 257.79 27.6307 258.674 28.116C259.558 28.584 260.243 29.26 260.728 30.144C261.196 29.312 261.872 28.6447 262.756 28.142C263.658 27.6393 264.628 27.388 265.668 27.388Z" fill="black"/>
</g>
<g filter="url(#filter1_d_249_191)">
<rect x="167" y="43" width="252" height="45" rx="10" fill="#8CBA80" shape-rendering="crispEdges"/>
<path d="M224.316 75H220.676L212.434 62.546V75H208.794V56.826H212.434L220.676 69.306V56.826H224.316V75ZM241.303 67.486C241.303 68.006 241.268 68.474 241.199 68.89H230.669C230.756 69.93 231.12 70.7447 231.761 71.334C232.402 71.9233 233.191 72.218 234.127 72.218C235.479 72.218 236.441 71.6373 237.013 70.476H240.939C240.523 71.8627 239.726 73.0067 238.547 73.908C237.368 74.792 235.921 75.234 234.205 75.234C232.818 75.234 231.57 74.9307 230.461 74.324C229.369 73.7 228.511 72.8247 227.887 71.698C227.28 70.5713 226.977 69.2713 226.977 67.798C226.977 66.3073 227.28 64.9987 227.887 63.872C228.494 62.7453 229.343 61.8787 230.435 61.272C231.527 60.6653 232.784 60.362 234.205 60.362C235.574 60.362 236.796 60.6567 237.871 61.246C238.963 61.8353 239.804 62.676 240.393 63.768C241 64.8427 241.303 66.082 241.303 67.486ZM237.533 66.446C237.516 65.51 237.178 64.7647 236.519 64.21C235.86 63.638 235.054 63.352 234.101 63.352C233.2 63.352 232.437 63.6293 231.813 64.184C231.206 64.7213 230.834 65.4753 230.695 66.446H237.533ZM263.928 60.596L259.716 75H255.79L253.164 64.938L250.538 75H246.586L242.348 60.596H246.04L248.588 71.568L251.344 60.596H255.192L257.896 71.542L260.444 60.596H263.928ZM275.811 71.932H283.975V75H271.599V72.192L279.711 59.92H271.599V56.852H283.975V59.66L275.811 71.932ZM300.463 67.486C300.463 68.006 300.429 68.474 300.359 68.89H289.829C289.916 69.93 290.28 70.7447 290.921 71.334C291.563 71.9233 292.351 72.218 293.287 72.218C294.639 72.218 295.601 71.6373 296.173 70.476H300.099C299.683 71.8627 298.886 73.0067 297.707 73.908C296.529 74.792 295.081 75.234 293.365 75.234C291.979 75.234 290.731 74.9307 289.621 74.324C288.529 73.7 287.671 72.8247 287.047 71.698C286.441 70.5713 286.137 69.2713 286.137 67.798C286.137 66.3073 286.441 64.9987 287.047 63.872C287.654 62.7453 288.503 61.8787 289.595 61.272C290.687 60.6653 291.944 60.362 293.365 60.362C294.735 60.362 295.957 60.6567 297.031 61.246C298.123 61.8353 298.964 62.676 299.553 63.768C300.16 64.8427 300.463 66.082 300.463 67.486ZM296.693 66.446C296.676 65.51 296.338 64.7647 295.679 64.21C295.021 63.638 294.215 63.352 293.261 63.352C292.36 63.352 291.597 63.6293 290.973 64.184C290.367 64.7213 289.994 65.4753 289.855 66.446H296.693ZM302.184 67.746C302.184 66.29 302.47 64.9987 303.042 63.872C303.632 62.7453 304.42 61.8787 305.408 61.272C306.414 60.6653 307.532 60.362 308.762 60.362C309.837 60.362 310.773 60.5787 311.57 61.012C312.385 61.4453 313.035 61.9913 313.52 62.65V60.596H317.186V75H313.52V72.894C313.052 73.57 312.402 74.1333 311.57 74.584C310.756 75.0173 309.811 75.234 308.736 75.234C307.523 75.234 306.414 74.922 305.408 74.298C304.42 73.674 303.632 72.7987 303.042 71.672C302.47 70.528 302.184 69.2193 302.184 67.746ZM313.52 67.798C313.52 66.914 313.347 66.16 313 65.536C312.654 64.8947 312.186 64.4093 311.596 64.08C311.007 63.7333 310.374 63.56 309.698 63.56C309.022 63.56 308.398 63.7247 307.826 64.054C307.254 64.3833 306.786 64.8687 306.422 65.51C306.076 66.134 305.902 66.8793 305.902 67.746C305.902 68.6127 306.076 69.3753 306.422 70.034C306.786 70.6753 307.254 71.1693 307.826 71.516C308.416 71.8627 309.04 72.036 309.698 72.036C310.374 72.036 311.007 71.8713 311.596 71.542C312.186 71.1953 312.654 70.71 313 70.086C313.347 69.4447 313.52 68.682 313.52 67.798ZM324.381 55.76V75H320.741V55.76H324.381ZM327.042 67.746C327.042 66.29 327.328 64.9987 327.9 63.872C328.489 62.7453 329.278 61.8787 330.266 61.272C331.271 60.6653 332.389 60.362 333.62 60.362C334.694 60.362 335.63 60.5787 336.428 61.012C337.242 61.4453 337.892 61.9913 338.378 62.65V60.596H342.044V75H338.378V72.894C337.91 73.57 337.26 74.1333 336.428 74.584C335.613 75.0173 334.668 75.234 333.594 75.234C332.38 75.234 331.271 74.922 330.266 74.298C329.278 73.674 328.489 72.7987 327.9 71.672C327.328 70.528 327.042 69.2193 327.042 67.746ZM338.378 67.798C338.378 66.914 338.204 66.16 337.858 65.536C337.511 64.8947 337.043 64.4093 336.454 64.08C335.864 63.7333 335.232 63.56 334.556 63.56C333.88 63.56 333.256 63.7247 332.684 64.054C332.112 64.3833 331.644 64.8687 331.28 65.51C330.933 66.134 330.76 66.8793 330.76 67.746C330.76 68.6127 330.933 69.3753 331.28 70.034C331.644 70.6753 332.112 71.1693 332.684 71.516C333.273 71.8627 333.897 72.036 334.556 72.036C335.232 72.036 335.864 71.8713 336.454 71.542C337.043 71.1953 337.511 70.71 337.858 70.086C338.204 69.4447 338.378 68.682 338.378 67.798ZM353.581 60.388C355.297 60.388 356.683 60.934 357.741 62.026C358.798 63.1007 359.327 64.6087 359.327 66.55V75H355.687V67.044C355.687 65.9 355.401 65.0247 354.829 64.418C354.257 63.794 353.477 63.482 352.489 63.482C351.483 63.482 350.686 63.794 350.097 64.418C349.525 65.0247 349.239 65.9 349.239 67.044V75H345.599V60.596H349.239V62.39C349.724 61.766 350.339 61.2807 351.085 60.934C351.847 60.57 352.679 60.388 353.581 60.388ZM361.852 67.746C361.852 66.29 362.138 64.9987 362.71 63.872C363.299 62.7453 364.097 61.8787 365.102 61.272C366.107 60.6653 367.225 60.362 368.456 60.362C369.392 60.362 370.285 60.57 371.134 60.986C371.983 61.3847 372.659 61.922 373.162 62.598V55.76H376.854V75H373.162V72.868C372.711 73.5787 372.079 74.1507 371.264 74.584C370.449 75.0173 369.505 75.234 368.43 75.234C367.217 75.234 366.107 74.922 365.102 74.298C364.097 73.674 363.299 72.7987 362.71 71.672C362.138 70.528 361.852 69.2193 361.852 67.746ZM373.188 67.798C373.188 66.914 373.015 66.16 372.668 65.536C372.321 64.8947 371.853 64.4093 371.264 64.08C370.675 63.7333 370.042 63.56 369.366 63.56C368.69 63.56 368.066 63.7247 367.494 64.054C366.922 64.3833 366.454 64.8687 366.09 65.51C365.743 66.134 365.57 66.8793 365.57 67.746C365.57 68.6127 365.743 69.3753 366.09 70.034C366.454 70.6753 366.922 71.1693 367.494 71.516C368.083 71.8627 368.707 72.036 369.366 72.036C370.042 72.036 370.675 71.8713 371.264 71.542C371.853 71.1953 372.321 70.71 372.668 70.086C373.015 69.4447 373.188 68.682 373.188 67.798Z" fill="black"/>
</g>
<g filter="url(#filter2_d_249_191)">
<rect x="293" y="79" width="201" height="45" rx="10" fill="#FABC3C" shape-rendering="crispEdges"/>
<path d="M345.922 107.542H338.694L337.498 111H333.676L340.202 92.826H344.44L350.966 111H347.118L345.922 107.542ZM344.934 104.63L342.308 97.038L339.682 104.63H344.934ZM367.003 96.596V111H363.337V109.18C362.869 109.804 362.254 110.298 361.491 110.662C360.746 111.009 359.931 111.182 359.047 111.182C357.921 111.182 356.924 110.948 356.057 110.48C355.191 109.995 354.506 109.293 354.003 108.374C353.518 107.438 353.275 106.329 353.275 105.046V96.596H356.915V104.526C356.915 105.67 357.201 106.554 357.773 107.178C358.345 107.785 359.125 108.088 360.113 108.088C361.119 108.088 361.907 107.785 362.479 107.178C363.051 106.554 363.337 105.67 363.337 104.526V96.596H367.003ZM376.107 111.234C374.928 111.234 373.871 111.026 372.935 110.61C371.999 110.177 371.253 109.596 370.699 108.868C370.161 108.14 369.867 107.334 369.815 106.45H373.481C373.55 107.005 373.819 107.464 374.287 107.828C374.772 108.192 375.37 108.374 376.081 108.374C376.774 108.374 377.311 108.235 377.693 107.958C378.091 107.681 378.291 107.325 378.291 106.892C378.291 106.424 378.048 106.077 377.563 105.852C377.095 105.609 376.341 105.349 375.301 105.072C374.226 104.812 373.342 104.543 372.649 104.266C371.973 103.989 371.383 103.564 370.881 102.992C370.395 102.42 370.153 101.649 370.153 100.678C370.153 99.8807 370.378 99.1527 370.829 98.494C371.297 97.8353 371.955 97.3153 372.805 96.934C373.671 96.5527 374.685 96.362 375.847 96.362C377.563 96.362 378.932 96.7953 379.955 97.662C380.977 98.5113 381.541 99.664 381.645 101.12H378.161C378.109 100.548 377.866 100.097 377.433 99.768C377.017 99.4213 376.453 99.248 375.743 99.248C375.084 99.248 374.573 99.3693 374.209 99.612C373.862 99.8547 373.689 100.193 373.689 100.626C373.689 101.111 373.931 101.484 374.417 101.744C374.902 101.987 375.656 102.238 376.679 102.498C377.719 102.758 378.577 103.027 379.253 103.304C379.929 103.581 380.509 104.015 380.995 104.604C381.497 105.176 381.757 105.939 381.775 106.892C381.775 107.724 381.541 108.469 381.073 109.128C380.622 109.787 379.963 110.307 379.097 110.688C378.247 111.052 377.251 111.234 376.107 111.234ZM389.001 99.586V106.554C389.001 107.039 389.113 107.395 389.339 107.62C389.581 107.828 389.98 107.932 390.535 107.932H392.225V111H389.937C386.869 111 385.335 109.509 385.335 106.528V99.586H383.619V96.596H385.335V93.034H389.001V96.596H392.225V99.586H389.001ZM398.483 98.832C398.951 98.0693 399.557 97.4713 400.303 97.038C401.065 96.6047 401.932 96.388 402.903 96.388V100.21H401.941C400.797 100.21 399.93 100.479 399.341 101.016C398.769 101.553 398.483 102.489 398.483 103.824V111H394.843V96.596H398.483V98.832ZM404.419 103.746C404.419 102.29 404.705 100.999 405.277 99.872C405.866 98.7453 406.655 97.8787 407.643 97.272C408.648 96.6653 409.766 96.362 410.997 96.362C412.071 96.362 413.007 96.5787 413.805 97.012C414.619 97.4453 415.269 97.9913 415.755 98.65V96.596H419.421V111H415.755V108.894C415.287 109.57 414.637 110.133 413.805 110.584C412.99 111.017 412.045 111.234 410.971 111.234C409.757 111.234 408.648 110.922 407.643 110.298C406.655 109.674 405.866 108.799 405.277 107.672C404.705 106.528 404.419 105.219 404.419 103.746ZM415.755 103.798C415.755 102.914 415.581 102.16 415.235 101.536C414.888 100.895 414.42 100.409 413.831 100.08C413.241 99.7333 412.609 99.56 411.933 99.56C411.257 99.56 410.633 99.7247 410.061 100.054C409.489 100.383 409.021 100.869 408.657 101.51C408.31 102.134 408.137 102.879 408.137 103.746C408.137 104.613 408.31 105.375 408.657 106.034C409.021 106.675 409.489 107.169 410.061 107.516C410.65 107.863 411.274 108.036 411.933 108.036C412.609 108.036 413.241 107.871 413.831 107.542C414.42 107.195 414.888 106.71 415.235 106.086C415.581 105.445 415.755 104.682 415.755 103.798ZM426.616 91.76V111H422.976V91.76H426.616ZM432.058 94.88C431.417 94.88 430.879 94.6807 430.446 94.282C430.03 93.866 429.822 93.3547 429.822 92.748C429.822 92.1413 430.03 91.6387 430.446 91.24C430.879 90.824 431.417 90.616 432.058 90.616C432.699 90.616 433.228 90.824 433.644 91.24C434.077 91.6387 434.294 92.1413 434.294 92.748C434.294 93.3547 434.077 93.866 433.644 94.282C433.228 94.6807 432.699 94.88 432.058 94.88ZM433.852 96.596V111H430.212V96.596H433.852ZM436.512 103.746C436.512 102.29 436.798 100.999 437.37 99.872C437.96 98.7453 438.748 97.8787 439.736 97.272C440.742 96.6653 441.86 96.362 443.09 96.362C444.165 96.362 445.101 96.5787 445.898 97.012C446.713 97.4453 447.363 97.9913 447.848 98.65V96.596H451.514V111H447.848V108.894C447.38 109.57 446.73 110.133 445.898 110.584C445.084 111.017 444.139 111.234 443.064 111.234C441.851 111.234 440.742 110.922 439.736 110.298C438.748 109.674 437.96 108.799 437.37 107.672C436.798 106.528 436.512 105.219 436.512 103.746ZM447.848 103.798C447.848 102.914 447.675 102.16 447.328 101.536C446.982 100.895 446.514 100.409 445.924 100.08C445.335 99.7333 444.702 99.56 444.026 99.56C443.35 99.56 442.726 99.7247 442.154 100.054C441.582 100.383 441.114 100.869 440.75 101.51C440.404 102.134 440.23 102.879 440.23 103.746C440.23 104.613 440.404 105.375 440.75 106.034C441.114 106.675 441.582 107.169 442.154 107.516C442.744 107.863 443.368 108.036 444.026 108.036C444.702 108.036 445.335 107.871 445.924 107.542C446.514 107.195 446.982 106.71 447.328 106.086C447.675 105.445 447.848 104.682 447.848 103.798Z" fill="black"/>
</g>
<g filter="url(#filter3_d_249_191)">
<rect x="419" y="115" width="188" height="45" rx="10" fill="#B191FF" shape-rendering="crispEdges"/>
<path d="M459.91 137.9C459.91 136.115 460.309 134.52 461.106 133.116C461.921 131.695 463.021 130.594 464.408 129.814C465.812 129.017 467.381 128.618 469.114 128.618C471.142 128.618 472.919 129.138 474.444 130.178C475.969 131.218 477.035 132.657 477.642 134.494H473.456C473.04 133.627 472.451 132.977 471.688 132.544C470.943 132.111 470.076 131.894 469.088 131.894C468.031 131.894 467.086 132.145 466.254 132.648C465.439 133.133 464.798 133.827 464.33 134.728C463.879 135.629 463.654 136.687 463.654 137.9C463.654 139.096 463.879 140.153 464.33 141.072C464.798 141.973 465.439 142.675 466.254 143.178C467.086 143.663 468.031 143.906 469.088 143.906C470.076 143.906 470.943 143.689 471.688 143.256C472.451 142.805 473.04 142.147 473.456 141.28H477.642C477.035 143.135 475.969 144.582 474.444 145.622C472.936 146.645 471.159 147.156 469.114 147.156C467.381 147.156 465.812 146.766 464.408 145.986C463.021 145.189 461.921 144.088 461.106 142.684C460.309 141.28 459.91 139.685 459.91 137.9ZM479.815 139.746C479.815 138.29 480.101 136.999 480.673 135.872C481.262 134.745 482.051 133.879 483.039 133.272C484.044 132.665 485.162 132.362 486.393 132.362C487.468 132.362 488.404 132.579 489.201 133.012C490.016 133.445 490.666 133.991 491.151 134.65V132.596H494.817V147H491.151V144.894C490.683 145.57 490.033 146.133 489.201 146.584C488.386 147.017 487.442 147.234 486.367 147.234C485.154 147.234 484.044 146.922 483.039 146.298C482.051 145.674 481.262 144.799 480.673 143.672C480.101 142.528 479.815 141.219 479.815 139.746ZM491.151 139.798C491.151 138.914 490.978 138.16 490.631 137.536C490.284 136.895 489.816 136.409 489.227 136.08C488.638 135.733 488.005 135.56 487.329 135.56C486.653 135.56 486.029 135.725 485.457 136.054C484.885 136.383 484.417 136.869 484.053 137.51C483.706 138.134 483.533 138.879 483.533 139.746C483.533 140.613 483.706 141.375 484.053 142.034C484.417 142.675 484.885 143.169 485.457 143.516C486.046 143.863 486.67 144.036 487.329 144.036C488.005 144.036 488.638 143.871 489.227 143.542C489.816 143.195 490.284 142.71 490.631 142.086C490.978 141.445 491.151 140.682 491.151 139.798ZM506.354 132.388C508.07 132.388 509.457 132.934 510.514 134.026C511.571 135.101 512.1 136.609 512.1 138.55V147H508.46V139.044C508.46 137.9 508.174 137.025 507.602 136.418C507.03 135.794 506.25 135.482 505.262 135.482C504.257 135.482 503.459 135.794 502.87 136.418C502.298 137.025 502.012 137.9 502.012 139.044V147H498.372V132.596H502.012V134.39C502.497 133.766 503.113 133.281 503.858 132.934C504.621 132.57 505.453 132.388 506.354 132.388ZM514.626 139.746C514.626 138.29 514.912 136.999 515.484 135.872C516.073 134.745 516.862 133.879 517.85 133.272C518.855 132.665 519.973 132.362 521.204 132.362C522.278 132.362 523.214 132.579 524.012 133.012C524.826 133.445 525.476 133.991 525.962 134.65V132.596H529.628V147H525.962V144.894C525.494 145.57 524.844 146.133 524.012 146.584C523.197 147.017 522.252 147.234 521.178 147.234C519.964 147.234 518.855 146.922 517.85 146.298C516.862 145.674 516.073 144.799 515.484 143.672C514.912 142.528 514.626 141.219 514.626 139.746ZM525.962 139.798C525.962 138.914 525.788 138.16 525.442 137.536C525.095 136.895 524.627 136.409 524.038 136.08C523.448 135.733 522.816 135.56 522.14 135.56C521.464 135.56 520.84 135.725 520.268 136.054C519.696 136.383 519.228 136.869 518.864 137.51C518.517 138.134 518.344 138.879 518.344 139.746C518.344 140.613 518.517 141.375 518.864 142.034C519.228 142.675 519.696 143.169 520.268 143.516C520.857 143.863 521.481 144.036 522.14 144.036C522.816 144.036 523.448 143.871 524.038 143.542C524.627 143.195 525.095 142.71 525.442 142.086C525.788 141.445 525.962 140.682 525.962 139.798ZM532.247 139.746C532.247 138.29 532.533 136.999 533.105 135.872C533.694 134.745 534.491 133.879 535.497 133.272C536.502 132.665 537.62 132.362 538.851 132.362C539.787 132.362 540.679 132.57 541.529 132.986C542.378 133.385 543.054 133.922 543.557 134.598V127.76H547.249V147H543.557V144.868C543.106 145.579 542.473 146.151 541.659 146.584C540.844 147.017 539.899 147.234 538.825 147.234C537.611 147.234 536.502 146.922 535.497 146.298C534.491 145.674 533.694 144.799 533.105 143.672C532.533 142.528 532.247 141.219 532.247 139.746ZM543.583 139.798C543.583 138.914 543.409 138.16 543.063 137.536C542.716 136.895 542.248 136.409 541.659 136.08C541.069 135.733 540.437 135.56 539.761 135.56C539.085 135.56 538.461 135.725 537.889 136.054C537.317 136.383 536.849 136.869 536.485 137.51C536.138 138.134 535.965 138.879 535.965 139.746C535.965 140.613 536.138 141.375 536.485 142.034C536.849 142.675 537.317 143.169 537.889 143.516C538.478 143.863 539.102 144.036 539.761 144.036C540.437 144.036 541.069 143.871 541.659 143.542C542.248 143.195 542.716 142.71 543.063 142.086C543.409 141.445 543.583 140.682 543.583 139.798ZM549.868 139.746C549.868 138.29 550.154 136.999 550.726 135.872C551.315 134.745 552.104 133.879 553.092 133.272C554.097 132.665 555.215 132.362 556.446 132.362C557.52 132.362 558.456 132.579 559.254 133.012C560.068 133.445 560.718 133.991 561.204 134.65V132.596H564.87V147H561.204V144.894C560.736 145.57 560.086 146.133 559.254 146.584C558.439 147.017 557.494 147.234 556.42 147.234C555.206 147.234 554.097 146.922 553.092 146.298C552.104 145.674 551.315 144.799 550.726 143.672C550.154 142.528 549.868 141.219 549.868 139.746ZM561.204 139.798C561.204 138.914 561.03 138.16 560.684 137.536C560.337 136.895 559.869 136.409 559.28 136.08C558.69 135.733 558.058 135.56 557.382 135.56C556.706 135.56 556.082 135.725 555.51 136.054C554.938 136.383 554.47 136.869 554.106 137.51C553.759 138.134 553.586 138.879 553.586 139.746C553.586 140.613 553.759 141.375 554.106 142.034C554.47 142.675 554.938 143.169 555.51 143.516C556.099 143.863 556.723 144.036 557.382 144.036C558.058 144.036 558.69 143.871 559.28 143.542C559.869 143.195 560.337 142.71 560.684 142.086C561.03 141.445 561.204 140.682 561.204 139.798Z" fill="black"/>
</g>
<defs>
<filter id="filter0_d_249_191" x="0" y="0" width="334" height="85" filterUnits="userSpaceOnUse" color-interpolation-filters="sRGB">
<feFlood flood-opacity="0" result="BackgroundImageFix"/>
<feColorMatrix in="SourceAlpha" type="matrix" values="0 0 0 0 0 0 0 0 0 0 0 0 0 0 0 0 0 0 127 0" result="hardAlpha"/>
<feOffset dy="10"/>
<feGaussianBlur stdDeviation="10"/>
<feComposite in2="hardAlpha" operator="out"/>
<feColorMatrix type="matrix" values="0 0 0 0 0 0 0 0 0 0 0 0 0 0 0 0 0 0 0.15 0"/>
<feBlend mode="normal" in2="BackgroundImageFix" result="effect1_dropShadow_249_191"/>
<feBlend mode="normal" in="SourceGraphic" in2="effect1_dropShadow_249_191" result="shape"/>
</filter>
<filter id="filter1_d_249_191" x="147" y="33" width="292" height="85" filterUnits="userSpaceOnUse" color-interpolation-filters="sRGB">
<feFlood flood-opacity="0" result="BackgroundImageFix"/>
<feColorMatrix in="SourceAlpha" type="matrix" values="0 0 0 0 0 0 0 0 0 0 0 0 0 0 0 0 0 0 127 0" result="hardAlpha"/>
<feOffset dy="10"/>
<feGaussianBlur stdDeviation="10"/>
<feComposite in2="hardAlpha" operator="out"/>
<feColorMatrix type="matrix" values="0 0 0 0 0 0 0 0 0 0 0 0 0 0 0 0 0 0 0.15 0"/>
<feBlend mode="normal" in2="BackgroundImageFix" result="effect1_dropShadow_249_191"/>
<feBlend mode="normal" in="SourceGraphic" in2="effect1_dropShadow_249_191" result="shape"/>
</filter>
<filter id="filter2_d_249_191" x="273" y="69" width="241" height="85" filterUnits="userSpaceOnUse" color-interpolation-filters="sRGB">
<feFlood flood-opacity="0" result="BackgroundImageFix"/>
<feColorMatrix in="SourceAlpha" type="matrix" values="0 0 0 0 0 0 0 0 0 0 0 0 0 0 0 0 0 0 127 0" result="hardAlpha"/>
<feOffset dy="10"/>
<feGaussianBlur stdDeviation="10"/>
<feComposite in2="hardAlpha" operator="out"/>
<feColorMatrix type="matrix" values="0 0 0 0 0 0 0 0 0 0 0 0 0 0 0 0 0 0 0.15 0"/>
<feBlend mode="normal" in2="BackgroundImageFix" result="effect1_dropShadow_249_191"/>
<feBlend mode="normal" in="SourceGraphic" in2="effect1_dropShadow_249_191" result="shape"/>
</filter>
<filter id="filter3_d_249_191" x="399" y="105" width="228" height="85" filterUnits="userSpaceOnUse" color-interpolation-filters="sRGB">
<feFlood flood-opacity="0" result="BackgroundImageFix"/>
<feColorMatrix in="SourceAlpha" type="matrix" values="0 0 0 0 0 0 0 0 0 0 0 0 0 0 0 0 0 0 127 0" result="hardAlpha"/>
<feOffset dy="10"/>
<feGaussianBlur stdDeviation="10"/>
<feComposite in2="hardAlpha" operator="out"/>
<feColorMatrix type="matrix" values="0 0 0 0 0 0 0 0 0 0 0 0 0 0 0 0 0 0 0.15 0"/>
<feBlend mode="normal" in2="BackgroundImageFix" result="effect1_dropShadow_249_191"/>
<feBlend mode="normal" in="SourceGraphic" in2="effect1_dropShadow_249_191" result="shape"/>
</filter>
</defs>
</svg>
